<!DOCTYPE svg PUBLIC "-//W3C//DTD SVG 1.1//EN" "http://www.w3.org/Graphics/SVG/1.1/DTD/svg11.dtd">
<!-- Uploaded to: SVG Repo, www.svgrepo.com, Transformed by: SVG Repo Mixer Tools -->
<svg fill="#E5E4E2" width="256px" height="256px" viewBox="-3.2 -3.2 38.40 38.40" style="fill-rule:evenodd;clip-rule:evenodd;stroke-linejoin:round;stroke-miterlimit:2;" version="1.1" xml:space="preserve" xmlns="http://www.w3.org/2000/svg" xmlns:serif="http://www.serif.com/" xmlns:xlink="http://www.w3.org/1999/xlink">
<g id="SVGRepo_bgCarrier" stroke-width="0">
<rect x="-3.2" y="-3.2" width="38.40" height="38.40" rx="19.2" fill="#1A1A1A" strokewidth="0"/>
</g>
<g id="SVGRepo_tracerCarrier" stroke-linecap="round" stroke-linejoin="round"/>
<g id="SVGRepo_iconCarrier"> <g id="Layer1"> <path d="M16,2c-7.727,0 -14,6.273 -14,14c0,7.727 6.273,14 14,14c7.727,0 14,-6.273 14,-14c-0,-7.727 -6.273,-14 -14,-14Zm-1,20l0,2c0,0.552 0.448,1 1,1c0.552,-0 1,-0.448 1,-1l0,-2c0,-0.552 -0.448,-1 -1,-1c-0.552,-0 -1,0.448 -1,1Zm0,-14l0,10c0,0.552 0.448,1 1,1c0.552,-0 1,-0.448 1,-1l0,-10c0,-0.552 -0.448,-1 -1,-1c-0.552,-0 -1,0.448 -1,1Z"/> </g> </g>
</svg>